<?xml version="1.0" encoding="utf-8"?>
<!-- Generator: Adobe Illustrator 16.0.0, SVG Export Plug-In . SVG Version: 6.00 Build 0)  -->
<!DOCTYPE svg PUBLIC "-//W3C//DTD SVG 1.1//EN" "http://www.w3.org/Graphics/SVG/1.1/DTD/svg11.dtd">
<svg version="1.1" id="Capa_1" xmlns="http://www.w3.org/2000/svg" xmlns:xlink="http://www.w3.org/1999/xlink" x="0px" y="0px"
	 width="800px" height="800px" viewBox="195.5 0 800 800" enable-background="new 195.5 0 800 800" xml:space="preserve">
<g>
	<path fill="#AAAAAA" d="M330.939,400.143c0-112.868,69.865-209.712,168.612-249.595l50.387-101.207
		C378.173,73.743,245.647,221.743,245.647,400.143c0,162.308,109.699,299.468,258.843,341.262l9.691-86.236
		C407.771,619.266,330.939,518.509,330.939,400.143z"/>
	<path fill="#AAAAAA" d="M954.353,400.143c0-162.276-109.651-299.41-258.744-341.235l-9.91,86.172
		c106.471,35.868,183.362,136.654,183.362,255.063c0,112.209-69.053,208.579-166.888,248.89L650.39,750.896
		C821.996,726.356,954.353,578.427,954.353,400.143z"/>
	<path fill="#A31111" d="M802.826,357.2c3.358-6.607,3.042-13.865-0.837-20.183c-3.875-6.319-10.757-8.838-18.172-8.838H621.706
		l34.897-303.392c1.189-10.286-5.187-20.942-15.117-23.89C639.436,0.29,637.359,0,635.31,0c-7.874,0-15.315,4.48-18.98,11.839
		L397.094,452.363c-3.289,6.607-2.927,15.406,0.959,21.686c3.889,6.277,10.744,11.389,18.13,11.389h159.974L543.362,777.41
		c-1.146,10.246,5.2,18.863,15.078,21.816c2.028,0.607,4.083,0.773,6.112,0.773c7.857,0,15.299-4.363,19.012-11.67L802.826,357.2z"
		/>
</g>
</svg>
