<svg height="511pt" viewBox="0 -25 511.97879 511" width="511pt" xmlns="http://www.w3.org/2000/svg"><path d="m450.792969 366.398438c-10.402344 10.039062-23.792969 16.421874-38.144531 18.175781-22.074219 3.574219-44.640626 2.734375-66.390626-2.472657-13.851562-3.035156-27.332031-7.585937-40.191406-13.570312l-36.523437-61.269531-7.679688-12.882813 125.78125 16.382813c33.792969 12.203125 58.285157 31.914062 64 51.625.421875 1.394531.097657 2.910156-.851562 4.011719zm0 0" fill="#a4c2f7"/><path d="m425.191406 374.933594c-3.585937 3.917968-7.832031 7.179687-12.542968 9.640625-22.074219 3.574219-44.640626 2.734375-66.390626-2.472657-13.851562-3.035156-27.332031-7.585937-40.191406-13.570312l-36.523437-61.269531 92.503906 12.03125c33.792969 12.203125 58.28125 31.917969 64 51.628906.417969 1.394531.097656 2.90625-.855469 4.011719zm0 0" fill="#cad9fc"/><path d="m230.292969 308.203125-24.40625 60.328125c-12.859375 5.984375-26.339844 10.535156-40.191407 13.570312-45.824218 10.238282-87.894531 3.070313-104.535156-15.703124-.949218-1.101563-1.273437-2.617188-.851562-4.011719.503906-1.757813 1.160156-3.472657 1.960937-5.117188 8.105469-18.007812 31.230469-35.328125 62.039063-46.507812l90.367187-2.21875zm0 0" fill="#a4c2f7"/><path d="m214.675781 308.542969-17.324219 42.921875c-12.859374 5.984375-26.335937 10.535156-40.191406 13.570312-38.65625 8.617188-74.582031 4.863282-94.890625-7.765625 8.105469-18.007812 31.230469-35.328125 62.039063-46.507812zm0 0" fill="#cad9fc"/><path d="m307.175781 350.527344c-.023437 24.996094-6.332031 49.585937-18.347656 71.507812-7.222656 13.617188-18.785156 24.425782-32.851563 30.722656-5.589843-2.199218-10.757812-5.34375-15.273437-9.304687-17.921875-15.1875-31.148437-43.519531-34.816406-74.921875-.761719-5.96875-1.132813-11.984375-1.109375-18.003906l38.058594-25.601563h21.332031zm0 0" fill="#a4c2f7"/><path d="m290.109375 341.992188c-.023437 25-6.332031 49.589843-18.347656 71.511718-6.960938 12.988282-17.824219 23.464844-31.058594 29.949219-17.921875-15.1875-31.148437-43.519531-34.816406-74.921875-.761719-5.96875-1.132813-11.984375-1.109375-18.003906l38.058594-25.601563h18.601562zm0 0" fill="#cad9fc"/><path d="m378.941406 219.625-43.519531 72.617188-157.867187 3.160156-.171876-.34375 140.972657-2.816406 43.519531-72.617188c13.824219-24.492188 34.390625-66.390625 31.230469-95.488281-.003907-.273438-.09375-.542969-.253907-.765625 4.070313-1.160156 8.203126-2.097656 12.371094-2.816406 1.136719-.199219 2.300782.070312 3.230469.746093.933594.675781 1.554687 1.699219 1.722656 2.835938 3.15625 29.097656-17.410156 70.996093-31.234375 95.488281zm0 0" fill="#cad9fc"/><path d="m361.875 219.625-43.519531 72.617188-140.972657 2.816406-44.371093-75.433594c-13.824219-24.492188-34.390625-66.390625-31.234375-95.488281.007812-.273438.097656-.542969.257812-.765625.609375-2.007813 2.636719-3.222656 4.695313-2.816406 15.1875 2.644531 66.214843 14.847656 78.335937 62.804687l20.820313 72.789063 93.695312 12.96875 16.8125 2.304687 10.492188-88.0625c9.730469-38.65625 44.800781-54.101563 65.964843-59.988281.160157.222656.25.492187.253907.765625 3.160156 29.097656-17.40625 70.996093-31.230469 95.488281zm0 0" fill="#e8edfc"/><path d="m254.535156 353.683594c-23.46875 0-.769531.085937 0 .085937h27.125c8.59375-.234375 17.140625-1.320312 25.515625-3.242187 21.222657-5.167969 41.414063-13.878906 59.734375-25.769532 7.507813-4.695312 14.421875-9.386718 20.734375-13.996093 47.277344-34.476563 75.308594-67.15625 113.195313-84.140625 1.730468-.703125 2.789062-2.46875 2.589844-4.328125-.199219-1.859375-1.601563-3.367188-3.441407-3.691407-15.703125-2.730468-55.339843-1.449218-102.101562 29.867188v.085938" fill="#cad9fc"/><path d="m275.175781 350.527344c24.066407-10.921875 64.425781-30.71875 82.6875-47.789063 16.375-15.609375 29.917969-33.945312 40.023438-54.183593v-.085938c8.441406-16.523438 15.214843-33.847656 20.222656-51.710938-13.449219 6.925782-26.523437 14.5625-39.167969 22.867188-12.761718 8.234375-24.988281 17.269531-36.609375 27.050781" fill="#cad9fc"/><path d="m114.066406 248.554688v-.085938c-46.761718-31.316406-86.398437-32.597656-102.101562-29.867188-1.839844.324219-3.242188 1.832032-3.441406 3.691407-.199219 1.859375.859374 3.625 2.589843 4.328125 37.886719 16.984375 65.917969 49.664062 113.195313 84.140625 6.3125 4.609375 13.226562 9.300781 20.734375 13.996093 18.320312 11.890626 38.511719 20.601563 59.734375 25.769532 8.375 1.921875 16.921875 3.007812 25.515625 3.242187h.082031c.769531 0 24.917969 0 25.601562-.085937" fill="#e8edfc"/><path d="m236.777344 350.527344c-24.066406-10.921875-64.425782-30.71875-82.6875-47.789063-16.375-15.609375-29.917969-33.945312-40.023438-54.183593v-.085938c-8.441406-16.523438-15.214844-33.847656-20.222656-51.710938 13.449219 6.925782 26.523438 14.5625 39.167969 22.867188 12.761719 8.234375 24.988281 17.269531 36.609375 27.050781" fill="#cad9fc"/><path d="m200.9375 199.570312c-5.375-22.714843-11.992188-67.34375 9.128906-93.105468.839844-.941406 2.050782-1.460938 3.308594-1.425782 1.257812.035157 2.4375.625 3.21875 1.613282 15.007812 19.703125 24.742188 42.902344 28.289062 67.414062h22.1875c3.546876-24.511718 13.28125-47.710937 28.289063-67.414062.78125-.988282 1.960937-1.578125 3.21875-1.613282 1.257813-.035156 2.46875.484376 3.308594 1.425782 21.121093 25.761718 14.507812 70.390625 9.128906 93.105468l-44.109375 113.71875h-27.46875zm0 0" fill="#e8edfc"/><path d="m222.269531 225.941406c6.484375-15.617187 15.359375-36.523437 22.613281-51.882812 2.945313-7.046875 6.667969-13.746094 11.09375-19.96875 4.425782 6.222656 8.148438 12.921875 11.09375 19.96875 7.253907 15.359375 16.128907 36.265625 22.613282 51.882812l13.492187 34.746094-28 62.738281-46.933593-3.199219-22.355469-58.667968zm0 0" fill="#e8edfc"/><path d="m240.191406 350.269531h-2.988281c.929687-.511719 2.058594-.511719 2.988281 0zm0 0" fill="#cc66a1"/><path d="m274.75 350.269531h-2.988281c.929687-.511719 2.058593-.511719 2.988281 0zm0 0" fill="#cc66a1"/><path d="m342.332031 246.675781c-.339843 3.15625-.679687 6.398438-1.023437 9.8125-5.800782 52.308594-47.871094 84.394531-71.167969 97.28125-.9375-.511719 2.648437-4.011719 1.621094-3.5-4.351563 1.453125-9.8125 8.621094-15.785157 8.621094-3.160156-.351563-6.140624-1.664063-8.535156-3.757813 2.210938-1.910156 4.648438-3.542968 7.253906-4.863281 1.023438-.511719-2.558593 2.988281-1.621093 3.5 23.296875-12.886719 65.367187-44.972656 71.167969-97.28125.34375-3.414062.683593-6.65625 1.023437-9.8125 2.710937-21.050781 3.367187-42.3125 1.964844-63.488281 8.449219-7.851562 14.078125-12.03125 14.078125-12.03125s7.765625 7.765625 1.023437 75.519531zm0 0" fill="#cad9fc"/><path d="m325.265625 246.675781c-.339844 3.15625-.679687 6.398438-1.023437 9.8125-5.800782 52.308594-47.871094 84.394531-71.167969 97.28125-.9375-.511719 2.644531-4.011719 1.621093-3.5-2.605468 1.320313-5.042968 2.953125-7.253906 4.863281-2.207031-1.910156-4.644531-3.542968-7.25-4.863281-1.027344-.511719 2.816406 2.988281 1.960938 3.5-23.296875-12.886719-65.707032-44.972656-71.507813-97.28125-.34375-3.414062-.683593-6.65625-1.023437-9.8125-2.710938-21.050781-3.367188-42.3125-1.964844-63.488281 1.109375-10.152344 2.988281-12.03125 2.988281-12.03125 10.875 8.605469 21.007813 18.109375 30.292969 28.414062 7.628906 8.359376 14.75 17.164063 21.332031 26.371094 7.355469 10.335938 13.835938 21.265625 19.371094 32.679688 2.046875 4.183594 4.011719 8.707031 5.800781 13.398437 3.511719 8.824219 6.363282 17.894531 8.535156 27.136719 3.308594-13.988281 8.113282-27.578125 14.335938-40.535156 5.535156-11.414063 12.015625-22.34375 19.371094-32.679688 6.582031-9.207031 13.703125-18.011718 21.332031-26.371094 5.890625-6.570312 11.519531-12.03125 16.214844-16.382812 1.402343 21.175781.746093 42.4375-1.964844 63.488281zm0 0" fill="#e8edfc"/><path d="m221.84375 60.222656c0 9.425782-7.640625 17.066406-17.066406 17.066406-9.425782 0-17.066406-7.640624-17.066406-17.066406 0-9.425781 7.640624-17.066406 17.066406-17.066406 9.425781 0 17.066406 7.640625 17.066406 17.066406zm0 0" fill="#e8edfc"/><path d="m324.242188 60.222656c0 9.425782-7.640626 17.066406-17.066407 17.066406s-17.066406-7.640624-17.066406-17.066406c0-9.425781 7.640625-17.066406 17.066406-17.066406s17.066407 7.640625 17.066407 17.066406zm0 0" fill="#e8edfc"/><path d="m273.042969 26.089844c0 9.425781-7.640625 17.066406-17.066407 17.066406-9.425781 0-17.066406-7.640625-17.066406-17.066406 0-9.425782 7.640625-17.066406 17.066406-17.066406 9.425782 0 17.066407 7.640624 17.066407 17.066406zm0 0" fill="#e8edfc"/><path d="m127.277344 125.929688c-6.695313-2.355469-13.566406-4.167969-20.546875-5.417969-2.058594-.40625-4.085938.808593-4.695313 2.816406-.160156.222656-.25.492187-.257812.765625-2.34375 21.632812 8.425781 58.882812 19.78125 82.238281 5.121094 2.660157 19.628906 10.417969 37.050781 21.785157-13.566406-23.945313-33.492187-73.175782-31.332031-102.1875zm0 0" fill="#fff"/><path d="m204.777344 77.289062c4.917968-.011718 9.589844-2.160156 12.800781-5.886718-5.691406-6.367188-5.691406-15.992188 0-22.359375-5.167969-5.957031-13.746094-7.601563-20.75-3.972657-7 3.628907-10.605469 11.582032-8.71875 19.238282 1.890625 7.660156 8.78125 13.023437 16.667969 12.980468zm0 0" fill="#fff"/><path d="m86.761719 366.398438c-.953125-1.101563-1.273438-2.617188-.855469-4.011719.503906-1.757813 1.160156-3.472657 1.964844-5.117188 8.105468-18.007812 31.230468-35.328125 62.035156-46.507812-47.273438-34.476563-75.304688-67.15625-113.195312-84.140625-1.730469-.703125-2.785157-2.46875-2.585938-4.328125.195312-1.859375 1.601562-3.367188 3.441406-3.691407.171875 0 .382813-.050781.5625-.078124-8.679687-1.199219-17.488281-1.171876-26.164062.078124-1.839844.324219-3.242188 1.832032-3.441406 3.691407-.199219 1.859375.859374 3.625 2.589843 4.328125 37.886719 16.984375 65.917969 49.664062 113.195313 84.140625-30.808594 11.179687-53.933594 28.5-62.039063 46.507812-.800781 1.644531-1.457031 3.359375-1.960937 5.117188-.421875 1.394531-.097656 2.910156.851562 4.011719 13.183594 14.882812 42.367188 22.425781 76.714844 19.839843-22.851562-1.867187-41.371094-8.839843-51.113281-19.839843zm0 0" fill="#fff"/><path d="m281.660156 362.300781h-.082031c-4.707031-.023437-8.503906-3.847656-8.492187-8.550781.011718-4.707031 3.828124-8.515625 8.535156-8.515625 4.703125 0 8.519531 3.808594 8.53125 8.515625.011718 4.703125-3.785156 8.527344-8.492188 8.550781zm0 0" fill="#428dff"/><path d="m387.277344 395.335938c-14.429688-.066407-28.8125-1.710938-42.886719-4.90625-14.460937-3.164063-28.523437-7.914063-41.941406-14.167969-4.269531-1.996094-6.113281-7.078125-4.113281-11.347657 2-4.269531 7.078124-6.113281 11.347656-4.113281 12.285156 5.722657 25.164062 10.074219 38.402344 12.972657 44.601562 9.980468 80.597656 2.027343 94.617187-11.308594-6.195313-16.144532-28.550781-33.082032-57.957031-43.671875-2.871094-1.035157-4.96875-3.519531-5.507813-6.523438-.539062-3 .5625-6.0625 2.890625-8.027343 2.332032-1.96875 5.53125-2.542969 8.402344-1.511719 36.847656 13.277343 62.769531 34.679687 69.332031 57.257812 1.199219 4.214844.183594 8.746094-2.695312 12.042969-13.3125 15.121094-39.195313 23.304688-69.890625 23.304688zm0 0" fill="#428dff"/><path d="m281.679688 362.300781c-1.09375.019531-2.183594-.027343-3.269532-.132812-4.679687-.570313-8.011718-4.828125-7.441406-9.507813.570312-4.679687 4.828125-8.011718 9.507812-7.441406.367188.023438.734376.023438 1.101563 0 7.988281-.226562 15.9375-1.246094 23.730469-3.039062 20.269531-4.976563 39.566406-13.316407 57.078125-24.675782 7.050781-4.40625 13.859375-8.996094 20.222656-13.65625 17.519531-12.796875 32.097656-25.070312 46.191406-36.972656 16.734375-15.070312 34.765625-28.632812 53.882813-40.535156-28.652344 2.226562-56.160156 12.207031-79.566406 28.878906-2.566407 1.988281-6.039063 2.351562-8.957032.933594-2.921875-1.417969-4.785156-4.371094-4.808594-7.617188 0-2.867187 1.414063-5.554687 3.78125-7.175781 56.449219-37.785156 100.171876-32.597656 108.3125-31.179687 5.492188.886718 9.738282 5.292968 10.421876 10.8125.753906 5.652343-2.324219 11.121093-7.546876 13.414062-22.550781 10.101562-41.992187 26.511719-64.511718 45.515625-13.652344 11.527344-29.140625 24.59375-47.136719 37.71875-6.699219 4.886719-13.847656 9.710937-21.238281 14.335937-19.136719 12.402344-40.21875 21.5-62.371094 26.914063-8.929688 2.039063-18.046875 3.183594-27.203125 3.410156zm216.867187-135.292969h.066406zm0 0" fill="#428dff"/><path d="m275.183594 359.058594c-4.019532.007812-7.5-2.792969-8.351563-6.726563-.851562-3.929687 1.15625-7.921875 4.820313-9.578125 38.167968-17.316406 67.464844-34.175781 80.390625-46.25 15.472656-14.78125 28.300781-32.097656 37.933593-51.203125.101563-.246093.210938-.484375.324219-.714843 4.988281-9.699219 9.351563-19.710938 13.0625-29.96875-5.777343 3.359374-12.535156 7.472656-19.753906 12.183593-12.46875 8.042969-24.40625 16.878907-35.738281 26.453125-3.589844 3.066406-8.984375 2.636719-12.046875-.953125-3.066407-3.59375-2.636719-8.988281.953125-12.050781 11.894531-10.023438 24.417968-19.277344 37.488281-27.707031 12.917969-8.488281 26.277344-16.285157 40.019531-23.355469 3.03125-1.503906 6.660156-1.078125 9.257813 1.085938 2.597656 2.164062 3.671875 5.65625 2.742187 8.90625-5.101562 18.171874-11.960937 35.808593-20.480468 52.652343-.09375.238281-.203126.46875-.316407.6875-10.578125 21.109375-24.722656 40.234375-41.8125 56.527344-19.480469 18.199219-61.621093 38.722656-85 49.332031-1.101562.472656-2.292969.703125-3.492187.679688zm0 0" fill="#428dff"/><path d="m289.683594 234.472656c-3.453125 0-6.5625-2.078125-7.886719-5.265625-6.226563-15.007812-15.179687-36.128906-22.441406-51.507812-2.546875-6.183594-5.722657-12.09375-9.472657-17.636719-3.113281-3.460938-2.957031-8.761719.359376-12.03125 3.261718-3.222656 8.507812-3.222656 11.765624 0 5.375 6.753906 9.691407 14.289062 12.800782 22.339844 7.417968 15.691406 16.488281 37.085937 22.792968 52.273437 1.800782 4.351563-.261718 9.339844-4.605468 11.144531-1.046875.449219-2.175782.683594-3.3125.683594zm0 0" fill="#428dff"/><path d="m378.933594 228.160156c-3.035156-.003906-5.839844-1.617187-7.367188-4.234375-1.527344-2.621093-1.550781-5.859375-.058594-8.5 19.960938-35.328125 30.644532-65.390625 30.492188-85.519531-17.683594 3.832031-56.96875 16.621094-66.84375 55.550781-1.15625 4.570313-5.796875 7.335938-10.367188 6.179688-4.570312-1.15625-7.335937-5.800781-6.179687-10.367188 13.40625-52.90625 68.617187-66.261719 85.214844-69.121093 3.507812-.582032 7.101562.292968 9.949219 2.421874 2.761718 2.089844 4.542968 5.222657 4.925781 8.664063 3.214843 30.121094-15.796875 71.320313-32.324219 100.574219-1.511719 2.6875-4.355469 4.351562-7.441406 4.351562zm0 0" fill="#428dff"/><path d="m311.023438 208.105469c-.660157 0-1.324219-.078125-1.96875-.230469-4.570313-1.089844-7.398438-5.664062-6.332032-10.238281 3.960938-16.777344 11.023438-56.671875-4.121094-81.070313-12.023437 17.636719-19.925781 37.753906-23.117187 58.855469-.808594 4.613281-5.183594 7.710937-9.800781 6.945313-4.621094-.765626-7.757813-5.109376-7.035156-9.734376 3.816406-25.953124 14.167968-50.507812 30.078124-71.363281 2.433594-3.027343 6.101563-4.792969 9.984376-4.804687h.070312c3.75-.015625 7.308594 1.660156 9.691406 4.554687 23.390625 28.511719 16.835938 75.207031 10.847656 100.5-.902343 3.851563-4.335937 6.578125-8.296874 6.585938zm0 0" fill="#428dff"/><path d="m255.976562 461.289062c-1.027343 0-2.050781-.183593-3.011718-.546874-28.160156-10.621094-50.476563-47.28125-55.550782-91.230469-.804687-6.296875-1.195312-12.636719-1.171874-18.984375 0-4.714844 3.820312-8.535156 8.535156-8.535156 4.710937 0 8.53125 3.820312 8.53125 8.535156-.019532 5.648437.324218 11.292968 1.035156 16.894531 4.121094 35.59375 21.007812 66.132813 41.632812 76.066406 20.625-9.933593 37.546876-40.464843 41.617188-75.945312.71875-5.644531 1.070312-11.328125 1.050781-17.015625 0-4.714844 3.820313-8.535156 8.53125-8.535156 4.714844 0 8.535157 3.820312 8.535157 8.535156.019531 6.394531-.375 12.78125-1.1875 19.121094-5.058594 43.8125-27.390626 80.472656-55.535157 91.09375-.960937.363281-1.984375.546874-3.011719.546874zm0 0" fill="#428dff"/><path d="m230.375 362.300781h-.082031c-4.707031-.023437-8.503907-3.847656-8.492188-8.550781.011719-4.707031 3.828125-8.515625 8.53125-8.515625 4.707031 0 8.523438 3.808594 8.535157 8.515625.011718 4.703125-3.785157 8.527344-8.492188 8.550781zm0 0" fill="#428dff"/><path d="m124.683594 395.34375c-30.722656 0-56.585938-8.191406-69.90625-23.3125-2.875-3.289062-3.894532-7.8125-2.703125-12.015625 6.570312-22.605469 32.492187-44.007813 69.339843-57.285156 4.433594-1.597657 9.324219.703125 10.921876 5.136719 1.597656 4.4375-.699219 9.328124-5.136719 10.925781-29.398438 10.589843-51.738281 27.507812-57.957031 43.679687 14.019531 13.328125 49.996093 21.292969 94.582031 11.300782 13.238281-2.898438 26.117187-7.246094 38.402343-12.972657 2.761719-1.292969 6.003907-1.011719 8.503907.730469 2.5 1.746094 3.878906 4.695312 3.617187 7.734375-.261718 3.035156-2.125 5.703125-4.886718 6.996094-13.414063 6.261719-27.476563 11.023437-41.933594 14.199219-14.058594 3.1875-28.425782 4.824218-42.84375 4.882812zm0 0" fill="#428dff"/><path d="m119.28125 317.65625c-15.164062-11.09375-29.703125-22.972656-43.835938-34.933594-14.132812-11.964844-28.050781-23.894531-42.71875-33.988281-7.910156-5.515625-16.300781-10.308594-25.070312-14.320313l6.980469-15.582031c9.707031 4.429688 19 9.726563 27.757812 15.820313 15.796875 10.890625 29.96875 23.160156 44.085938 34.988281 14.113281 11.824219 28.203125 23.449219 42.886719 34.199219zm0 0" fill="#fff"/><g fill="#428dff"><path d="m90.753906 284.417969c-1.441406 1.753906-2.125 4.007812-1.902344 6.265625.226563 2.257812 1.339844 4.332031 3.097657 5.765625 8.898437 7.261719 18.003906 14.371093 27.304687 21.207031l10.054688-13.789062c-9.023438-6.621094-17.890625-13.503907-26.597656-20.644532-3.648438-2.914062-8.957032-2.382812-11.957032 1.195313zm0 0"/><path d="m14.601562 218.832031-6.945312 15.582031c8.78125 4.011719 17.183594 8.804688 25.105469 14.320313l6.722656 4.769531c3.769531 2.722656 9.015625 1.964844 11.863281-1.707031 1.378906-1.820313 1.96875-4.117187 1.640625-6.378906-.332031-2.257813-1.550781-4.292969-3.390625-5.644531l-7.203125-5.121094c-8.769531-6.097656-18.070312-11.390625-27.792969-15.820313zm0 0"/><path d="m65.683594 274.476562c1.746094 1.429688 3.96875 2.148438 6.21875 2.007813l1.605468-.316406c.554688-.15625 1.085938-.386719 1.578126-.683594.5-.214844.96875-.503906 1.382812-.851563.4375-.371093.847656-.769531 1.230469-1.195312 1.433593-1.75 2.152343-3.972656 2.011719-6.230469-.1875-2.878906-1.835938-5.460937-4.367188-6.847656-2.535156-1.382813-5.597656-1.375-8.125.019531-.980469.515625-1.847656 1.21875-2.558594 2.066406-1.414062 1.765626-2.121094 3.992188-1.980468 6.246094.238281 2.238282 1.308593 4.304688 3.003906 5.785156zm0 0"/><path d="m230.375 362.300781c-9.246094-.214843-18.449219-1.359375-27.46875-3.410156-22.152344-5.402344-43.238281-14.480469-62.386719-26.863281-7.390625-4.625-14.503906-9.449219-21.246093-14.34375-3.804688-2.78125-4.636719-8.121094-1.855469-11.925782 2.777343-3.808593 8.117187-4.636718 11.925781-1.855468 6.363281 4.65625 13.171875 9.25 20.222656 13.652344 17.519532 11.359374 36.816406 19.703124 57.097656 24.6875 7.824219 1.792968 15.808594 2.808593 23.832032 3.027343.152344-.007812.300781-.007812.453125 0 .175781.011719.351562.011719.527343 0 4.679688-.570312 8.9375 2.761719 9.507813 7.441407.570313 4.679687-2.761719 8.9375-7.441406 9.507812-1.054688.089844-2.109375.117188-3.167969.082031zm0 0"/><path d="m114.066406 257.042969c-1.996094.007812-3.933594-.6875-5.46875-1.96875-41.769531-27.734375-75.332031-29.441407-88.953125-28.714844.09375 2.933594-1.332031 5.707031-3.765625 7.34375s-5.539062 1.910156-8.222656.71875c-5.222656-2.292969-8.296875-7.761719-7.542969-13.414063.695313-5.546874 4.980469-9.964843 10.503907-10.828124 8.066406-1.417969 51.78125-6.597657 108.230468 31.195312 3.164063 2.078125 4.582032 5.992188 3.480469 9.613281-1.097656 3.621094-4.449219 6.085938-8.234375 6.054688zm0 0"/><path d="m236.769531 359.058594c-1.214843.003906-2.414062-.253906-3.515625-.757813-23.382812-10.605469-65.519531-31.128906-84.992187-49.332031-17.09375-16.289062-31.238281-35.414062-41.816407-56.523438-.117187-.234374-.226562-.472656-.324218-.71875-8.519532-16.832031-15.378906-34.457031-20.476563-52.625-.949219-3.253906.117188-6.761718 2.71875-8.9375 2.601563-2.171874 6.242188-2.601562 9.277344-1.089843 13.75 7.078125 27.117187 14.878906 40.039063 23.375 13.066406 8.421875 25.582031 17.671875 37.46875 27.691406 2.324218 1.980469 3.414062 5.050781 2.859374 8.054687-.554687 3-2.671874 5.480469-5.546874 6.5-2.878907 1.023438-6.082032.429688-8.40625-1.550781-11.324219-9.558593-23.257813-18.375-35.71875-26.394531-7.21875-4.71875-13.996094-8.839844-19.773438-12.203125 3.71875 10.269531 8.089844 20.289063 13.089844 29.996094.121094.238281.230468.496093.34375.742187 9.628906 19.101563 22.453125 36.417969 37.921875 51.199219 12.917969 12.066406 42.214843 28.929687 80.382812 46.242187 3.664063 1.660157 5.671875 5.652344 4.820313 9.582032-.851563 3.929687-4.332032 6.730468-8.351563 6.726562zm0 0"/><path d="m274.75 358.804688c-3.894531.003906-7.292969-2.628907-8.269531-6.398438-.972657-3.765625.726562-7.71875 4.128906-9.601562 20.898437-11.5625 56.78125-38.28125 62.210937-87.253907l1.023438-9.789062c2.414062-19.589844 3.164062-39.347657 2.242188-59.066407-5.117188 4.582032-11.671876 10.871094-18.773438 18.636719-7.394531 8.113281-14.300781 16.660157-20.675781 25.601563-7.082031 9.925781-13.316407 20.4375-18.628907 31.417968-5.960937 12.394532-10.5625 25.398438-13.71875 38.785157-.898437 3.863281-4.34375 6.597656-8.3125 6.597656s-7.414062-2.734375-8.3125-6.597656c-3.152343-13.371094-7.742187-26.359375-13.695312-38.742188-5.324219-11.011719-11.574219-21.550781-18.679688-31.503906-6.371093-8.941406-13.273437-17.488281-20.667968-25.601563-7.097656-7.757812-13.652344-14.035156-18.773438-18.621093-.917968 19.742187-.164062 39.523437 2.253906 59.136719l1.074219 9.832031c5.417969 48.886719 41.300781 75.605469 62.199219 87.167969 2.667969 1.476562 4.34375 4.265624 4.398438 7.3125.054687 3.050781-1.519532 5.894531-4.132813 7.46875-2.613281 1.570312-5.867187 1.628906-8.535156.152343-23.78125-13.160156-64.621094-43.691406-70.902344-100.308593l-1.023437-9.832032c-3.269532-32.820312-5.308594-73.695312 3.472656-82.476562 2.996094-2.976563 7.722656-3.3125 11.109375-.792969 11.300781 8.921875 21.824219 18.785156 31.457031 29.484375 7.859375 8.617188 15.203125 17.691406 21.988281 27.179688 7.652344 10.726562 14.386719 22.082031 20.128907 33.945312 2.367187 4.878906 4.601562 10.050781 6.632812 15.359375 2.039062-5.316406 4.265625-10.496094 6.65625-15.359375 5.726562-11.835938 12.445312-23.164062 20.078125-33.871094 6.789063-9.488281 14.132813-18.570312 21.992187-27.195312 9.644532-10.71875 20.179688-20.601563 31.496094-29.542969 3.398438-2.550781 8.15625-2.210937 11.160156.792969 8.78125 8.78125 6.742188 49.65625 3.480469 82.398437l-.988281 9.824219c-6.289062 56.703125-47.128906 87.234375-70.914062 100.394531-1.277344.707031-2.71875 1.074219-4.179688 1.066407zm0 0"/><path d="m222.269531 234.472656c-1.125.003906-2.238281-.21875-3.277343-.65625-4.347657-1.808594-6.410157-6.792968-4.605469-11.144531 6.304687-15.1875 15.359375-36.582031 22.78125-52.257813 3.113281-8.058593 7.425781-15.597656 12.800781-22.359374 3.371094-2.992188 8.488281-2.851563 11.683594.324218 3.199218 3.179688 3.375 8.296875.398437 11.683594-3.746093 5.554688-6.921875 11.46875-9.488281 17.65625-7.261719 15.359375-16.210938 36.480469-22.441406 51.488281-1.316406 3.179688-4.414063 5.253907-7.851563 5.265625zm0 0"/><path d="m133.019531 228.160156c-3.082031.003906-5.925781-1.652344-7.441406-4.335937-16.527344-29.253907-35.539063-70.453125-32.324219-100.566407.378906-3.445312 2.160156-6.578124 4.925782-8.667968 2.84375-2.136719 6.441406-3.011719 9.949218-2.425782 16.597656 2.84375 71.808594 16.214844 85.214844 69.121094 1.15625 4.570313-1.609375 9.210938-6.179688 10.367188-4.570312 1.15625-9.210937-1.609375-10.367187-6.175782-9.875-38.929687-49.152344-51.722656-66.84375-55.554687-.152344 20.121094 10.523437 50.1875 30.492187 85.523437 1.113282 1.96875 1.398438 4.304688.792969 6.484376-.609375 2.179687-2.058593 4.03125-4.027343 5.144531-1.28125.71875-2.722657 1.09375-4.191407 1.085937zm0 0"/><path d="m200.929688 208.105469c-3.953126-.003907-7.382813-2.71875-8.296876-6.5625-5.972656-25.292969-12.542968-71.988281 10.839844-100.488281 2.382813-2.902344 5.945313-4.578126 9.699219-4.566407h.070313c3.886718.015625 7.558593 1.78125 9.992187 4.8125 15.90625 20.855469 26.253906 45.410157 30.070313 71.355469.722656 4.628906-2.414063 8.972656-7.035157 9.738281-4.617187.765625-8.992187-2.335937-9.800781-6.945312-3.183594-21.121094-11.085938-41.257813-23.117188-58.90625-15.152343 24.40625-8.078124 64.296875-4.121093 81.066406 1.066406 4.574219-1.761719 9.152344-6.332031 10.238281-.644532.164063-1.304688.25-1.96875.257813zm0 0"/><path d="m255.976562 367.421875c-5.808593-.496094-11.277343-2.941406-15.523437-6.9375l-1.542969-1.167969-.171875.171875c-2.054687 2.296875-5.195312 3.304688-8.207031 2.636719-3.007812-.667969-5.425781-2.910156-6.316406-5.863281-.894532-2.953125-.121094-6.15625 2.015625-8.378907 1.835937-1.964843 4-3.59375 6.390625-4.824218.128906-.082032.273437-.160156.410156-.238282 6.242188-2.484374 13.375-.816406 17.867188 4.183594 1.554687 1.363282 3.296874 2.496094 5.171874 3.359375 1.773438-.925781 3.433594-2.054687 4.949219-3.359375 4.492188-5 11.625-6.667968 17.867188-4.183594.136719.078126.285156.15625.410156.238282 2.394531 1.230468 4.554687 2.859375 6.394531 4.824218 2.136719 2.222657 2.90625 5.425782 2.015625 8.378907-.894531 2.953125-3.308593 5.195312-6.320312 5.863281s-6.148438-.339844-8.207031-2.636719l-.136719-.171875-1.519531 1.167969c-4.25 4-9.730469 6.445313-15.546876 6.9375zm0 0"/><path d="m204.777344 85.824219c-14.140625 0-25.601563-11.464844-25.601563-25.601563 0-14.136718 11.460938-25.601562 25.601563-25.601562 14.136718 0 25.597656 11.464844 25.597656 25.601562 0 6.789063-2.695312 13.300782-7.496094 18.101563-4.800781 4.800781-11.3125 7.5-18.101562 7.5zm0-34.136719c-4.714844 0-8.535156 3.824219-8.535156 8.535156 0 4.714844 3.820312 8.535156 8.535156 8.535156 4.710937 0 8.53125-3.820312 8.53125-8.535156 0-4.710937-3.820313-8.535156-8.53125-8.535156zm0 0"/><path d="m307.175781 85.824219c-14.136719 0-25.597656-11.464844-25.597656-25.601563 0-14.136718 11.460937-25.601562 25.597656-25.601562 14.140625 0 25.601563 11.464844 25.601563 25.601562 0 6.789063-2.699219 13.300782-7.5 18.101563-4.800782 4.800781-11.3125 7.5-18.101563 7.5zm0-34.136719c-4.710937 0-8.53125 3.824219-8.53125 8.535156 0 4.714844 3.820313 8.535156 8.53125 8.535156 4.714844 0 8.535157-3.820312 8.535157-8.535156 0-4.710937-3.820313-8.535156-8.535157-8.535156zm0 0"/><path d="m255.976562 51.6875c-14.136718 0-25.601562-11.460938-25.601562-25.597656 0-14.140625 11.464844-25.601563 25.601562-25.601563 14.136719 0 25.601563 11.460938 25.601563 25.601563 0 6.789062-2.699219 13.300781-7.5 18.101562-4.800781 4.800782-11.3125 7.496094-18.101563 7.496094zm0-34.132812c-4.710937 0-8.535156 3.820312-8.535156 8.535156 0 4.710937 3.824219 8.53125 8.535156 8.53125 4.710938 0 8.535157-3.820313 8.535157-8.53125 0-4.714844-3.824219-8.535156-8.535157-8.535156zm0 0"/><path d="m255.976562 119.957031c-3.488281 0-6.621093-2.125-7.917968-5.359375-6.847656-16.121094-17.980469-30.054687-32.1875-40.296875-2.6875-1.554687-4.316406-4.453125-4.253906-7.558593.066406-3.105469 1.816406-5.933594 4.566406-7.375 2.75-1.445313 6.070312-1.28125 8.664062.429687 8.675782 5.546875 16.320313 12.554687 22.59375 20.71875v-37.359375c0-4.714844 3.824219-8.535156 8.535156-8.535156 4.710938 0 8.535157 3.820312 8.535157 8.535156v68.265625c-.003907 4.085937-2.902344 7.597656-6.914063 8.371094-.535156.105469-1.078125.160156-1.621094.164062zm0 0"/><path d="m255.976562 119.957031c-.542968-.003906-1.085937-.058593-1.621093-.164062-4.011719-.773438-6.910157-4.285157-6.914063-8.371094v-68.265625c0-4.714844 3.824219-8.535156 8.535156-8.535156 4.710938 0 8.535157 3.820312 8.535157 8.535156v37.359375c6.261719-8.164063 13.898437-15.175781 22.558593-20.726563 2.597657-1.710937 5.914063-1.875 8.664063-.433593 2.753906 1.445312 4.5 4.269531 4.566406 7.378906.066407 3.105469-1.5625 6-4.25 7.558594-14.195312 10.246093-25.316406 24.179687-32.15625 40.296875-1.292969 3.238281-4.429687 5.363281-7.917969 5.367187zm0 0"/><path d="m255.976562 171.15625c-4.710937 0-8.535156-3.820312-8.535156-8.535156v-51.199219c0-4.710937 3.824219-8.53125 8.535156-8.53125 4.710938 0 8.535157 3.820313 8.535157 8.53125v51.199219c0 4.714844-3.824219 8.535156-8.535157 8.535156zm0 0"/></g></svg>